<?xml version="1.0" encoding="utf-8"?>
<!-- Generator: Adobe Illustrator 24.1.0, SVG Export Plug-In . SVG Version: 6.00 Build 0)  -->
<svg version="1.1" id="Laag_1" xmlns="http://www.w3.org/2000/svg" xmlns:xlink="http://www.w3.org/1999/xlink" x="0px" y="0px"
	 viewBox="0 0 595.28 841.89" style="enable-background:new 0 0 595.28 841.89;" xml:space="preserve">
<style type="text/css">
	.st0{fill:#E9551D;}
	.st1{fill:#EF7C10;}
	.st2{fill:#F6A307;}
	.st3{fill:#B91D1B;}
	.st4{fill:#FFFFFF;}
	.st5{fill:#020203;}
</style>
<g>
	<g>
		<path class="st0" d="M451.11,218.97c22.85,33.07,35.59,72.89,36.14,112.94c-12.72-21.88-29.9-41.21-50.21-56.49
			c18.16,33.89,27.25,72.49,26.09,110.83c-5.51-24.48-20.92-46.63-42.06-60.47c13.08,32.78,25.68,71.78,6.28,101.34
			c-4.77-15.74-10.92-31.08-18.37-45.77c3.17,48.68-8.58,98.21-33.3,140.42c-0.33-31.43-9.03-62.74-24.98-89.93
			c0.26,39.65-5.64,79.33-17.42,117.23c-7.26-35.68-20.91-70.09-40.11-101.14c-6.74,29.64-16.82,58.55-29.99,85.99
			c-6.57-29.47-16.7-58.15-30.12-85.25c-17.24,27.91-14.16,63.18-10.51,95.69c-27.32-47.64-39.81-103.47-35.36-158.06
			c-13.41,15.61-22.07,35.16-24.57,55.49c-23.32-30.4-19.9-72.57-15.4-110.47c-20.02,16.62-36.5,37.4-48.06,60.59
			c-4.14-51.07,20.87-99.52,45.16-144.77c-14.25,19.73-32.56,36.58-53.48,49.22c12.58-31.24,23.28-63.22,32.01-95.72
			c-4.09,12.93-12.28,24.45-22.88,33c-0.28,2.34-0.77,4.45-1.61,6.31C84.39,270.8,49.17,311.8,47.25,315.4
			c0,0,22.2-2.46,37.64-16.81c-23.8,45.54,15.35,130.39,34.2,151.71c-3.6-9.7-2.78-23.35,5.62-29.47
			c-4.14,88.6,69.82,140.21,69.82,140.21s-10.2-19.87-1.59-31.22c4.78,24.28,109.52,58.38,109.52,107.17
			c0-49.46,112.64-85.27,124.34-153.36c1.93,0.12,4.8,20.08-1.05,27.3c53.61-31.5,88.95-131.45,85.12-160.36
			c8.38,9.27,13.31,29.75,13.31,29.75s32.33-74.74-0.97-137.58c-12.79-24.14-24.74-34.57-35.29-42.08
			c3.43,15.15,11.1,29.17,18.68,42.87C492.38,228.5,471.91,219.44,451.11,218.97z"/>
		<path class="st1" d="M286.9,209.68c-115.42-2.79-159.73-37.77-159.73-67.03c0,54.36-25.08,73.16-27.21,90.99
			c10.61-8.56,18.8-20.07,22.88-33c-8.73,32.5-19.43,64.49-32.01,95.72c20.93-12.63,39.24-29.48,53.48-49.22
			c-24.29,45.25-49.31,93.7-45.16,144.77c11.56-23.19,28.04-43.97,48.06-60.59c-4.51,37.9-7.92,80.07,15.4,110.47
			c2.5-20.33,11.16-39.88,24.57-55.49c-4.44,54.59,8.05,110.42,35.36,158.06c-3.65-32.51-6.72-67.78,10.51-95.69
			c13.42,27.1,23.55,55.79,30.12,85.25c13.17-27.45,23.25-56.35,29.99-85.99c19.2,31.05,32.85,65.46,40.11,101.14
			c11.78-37.9,17.68-77.58,17.42-117.23c15.95,27.19,24.65,58.5,24.98,89.93c24.72-42.21,36.47-91.74,33.3-140.42
			c7.44,14.69,13.6,30.03,18.37,45.77c19.4-29.56,6.8-68.56-6.28-101.34c21.14,13.83,36.55,35.99,42.06,60.47
			c1.16-38.34-7.93-76.94-26.09-110.83c20.31,15.28,37.49,34.61,50.21,56.49c-0.55-40.06-13.29-79.87-36.14-112.94
			c20.8,0.47,41.27,9.52,55.49,24.55c-7.57-13.69-15.25-27.72-18.68-42.87c-16.92-12.04-30.29-16.57-37.88-58.01
			C450.04,171.91,402.31,212.46,286.9,209.68z"/>
	</g>
	<path class="st2" d="M223.9,228.63c-20.37,17.7-24.19,55.83-20.25,82.36c3.05-12.33,9.81-23.74,19.21-32.38
		c-5.06,15.33,0.49,31.94,6.55,46.91c7.28,17.97,15.48,35.82,27.56,51.05c-4.93-20.68-3.43-42.81,4.24-62.65
		c0.11,7.52,4.03,14.4,7.64,21.02c16.48,30.22,28.65,62.73,36.05,96.28c16.26-32.43,10.97-71.33,21.36-106.04
		c14.79,14.84,18.52,37.01,20.81,57.72c13.14-26.81,18.08-57.49,14-87c11.19,10.56,19.52,24.05,23.91,38.71
		c5.08-23.5,3.99-48.28-3.15-71.25c-4.51-14.52-12.38-29.3-26.25-35.82c-5.28-2.48-11.11-3.59-16.89-4.43
		c-10-1.45-20.1-2.18-30.18-2.9c-12.43-0.89-24.95-1.78-37.32-0.32s-24.73,5.45-34.32,13.32"/>
	<path class="st3" d="M226.87,225.28c-5.6,51.57,104.88,84.64,132.68,4.35C368.15,204.8,228.31,212.01,226.87,225.28z"/>
	<g>
		<path class="st4" d="M235.58,244.28c0,8.11,113.6,5.45,113.44-1.99c-0.04-1.63,0.75-18.74,0.93-20.57
			c-31.86,1.74-86.5,0.88-114.37,9.4V244.28z"/>
	</g>
	<g>
		<path class="st2" d="M292.15,204.68c20.07,20.91,126.34,24.57,153.45-7.68c-18.48,15.46-43.13,13.85-51.46,10.78
			c15.5-4.68,17.16-18,17.16-18c-46.28,46.69-59.85-33.45-118.55,9.41c-48.44-35.33-80.2,14.69-117.09-2.58l15.7,11.17
			c0,0-23.14,15.34-51.46-10.78c3.52,5.37,7.88,10.11,12.87,14.26C192.36,224.8,273.37,219.68,292.15,204.68z"/>
		<path class="st0" d="M292.76,223.15c35.62,19.81,123.31,18.89,152.84-26.15v0c-27.11,32.25-133.38,28.58-153.45,7.68
			c-18.79,15-99.79,20.12-139.37,6.59C189.64,241.96,261.39,240.6,292.76,223.15z"/>
	</g>
	<path class="st0" d="M304.88,620.31c-20.57,11.53-48.54,73.78,4.03,122.97C304.88,697.17,352.42,670.78,304.88,620.31"/>
	<path class="st1" d="M303.65,620.31c-10.09,11.53-20.53,73.78,5.26,122.97C306.93,697.17,326.97,670.78,303.65,620.31"/>
	<path class="st5" d="M244.08,610.46c4.14-8.1,57.13,8.09,57.13,8.09s46.67-18.56,55.21-15.68c8.54,2.88,5.66,47.9,0,47.9
		c-5.66,0-55.18-25.21-55.18-25.21s-47.68,25.93-52.41,25.21S241.69,615.14,244.08,610.46z"/>
</g>
</svg>
